<mxfile host="app.diagrams.net" modified="2024-06-15T00:16:56.504Z" agent="Mozilla/5.0 (Windows NT 10.0; Win64; x64; rv:127.0) Gecko/20100101 Firefox/127.0" etag="mMU2-r2BG4ykx7Ovw8mP" version="24.4.9" type="github">
  <diagram name="Página-1" id="N736v5wlop04pO216EFR">
    <mxGraphModel dx="2587" dy="880" grid="1" gridSize="10" guides="1" tooltips="1" connect="1" arrows="1" fold="1" page="1" pageScale="1" pageWidth="827" pageHeight="1169" math="0" shadow="0">
      <root>
        <mxCell id="0" />
        <mxCell id="1" parent="0" />
        <mxCell id="FyFO1tsIWuesugRNneb9-59" value="" style="edgeStyle=orthogonalEdgeStyle;rounded=0;orthogonalLoop=1;jettySize=auto;html=1;" edge="1" parent="1" source="FyFO1tsIWuesugRNneb9-53" target="FyFO1tsIWuesugRNneb9-54">
          <mxGeometry relative="1" as="geometry" />
        </mxCell>
        <mxCell id="FyFO1tsIWuesugRNneb9-60" style="edgeStyle=orthogonalEdgeStyle;rounded=0;orthogonalLoop=1;jettySize=auto;html=1;entryX=0.5;entryY=0;entryDx=0;entryDy=0;" edge="1" parent="1" source="FyFO1tsIWuesugRNneb9-53" target="FyFO1tsIWuesugRNneb9-55">
          <mxGeometry relative="1" as="geometry" />
        </mxCell>
        <mxCell id="FyFO1tsIWuesugRNneb9-61" style="edgeStyle=orthogonalEdgeStyle;rounded=0;orthogonalLoop=1;jettySize=auto;html=1;entryX=0.5;entryY=0;entryDx=0;entryDy=0;" edge="1" parent="1" source="FyFO1tsIWuesugRNneb9-53" target="FyFO1tsIWuesugRNneb9-57">
          <mxGeometry relative="1" as="geometry" />
        </mxCell>
        <mxCell id="FyFO1tsIWuesugRNneb9-62" style="edgeStyle=orthogonalEdgeStyle;rounded=0;orthogonalLoop=1;jettySize=auto;html=1;entryX=0.75;entryY=0;entryDx=0;entryDy=0;" edge="1" parent="1" source="FyFO1tsIWuesugRNneb9-53" target="FyFO1tsIWuesugRNneb9-56">
          <mxGeometry relative="1" as="geometry" />
        </mxCell>
        <mxCell id="FyFO1tsIWuesugRNneb9-63" style="edgeStyle=orthogonalEdgeStyle;rounded=0;orthogonalLoop=1;jettySize=auto;html=1;entryX=0.75;entryY=0;entryDx=0;entryDy=0;" edge="1" parent="1" source="FyFO1tsIWuesugRNneb9-53" target="FyFO1tsIWuesugRNneb9-58">
          <mxGeometry relative="1" as="geometry" />
        </mxCell>
        <mxCell id="FyFO1tsIWuesugRNneb9-53" value="&lt;div&gt;Inicio&lt;/div&gt;&lt;div&gt;(monthSet)&lt;br&gt;&lt;/div&gt;" style="strokeWidth=2;html=1;shape=mxgraph.flowchart.start_1;whiteSpace=wrap;" vertex="1" parent="1">
          <mxGeometry x="350" y="40" width="100" height="60" as="geometry" />
        </mxCell>
        <mxCell id="FyFO1tsIWuesugRNneb9-54" value="dayM" style="shape=parallelogram;html=1;strokeWidth=2;perimeter=parallelogramPerimeter;whiteSpace=wrap;rounded=1;arcSize=12;size=0.23;" vertex="1" parent="1">
          <mxGeometry x="350" y="130" width="100" height="60" as="geometry" />
        </mxCell>
        <mxCell id="FyFO1tsIWuesugRNneb9-55" value="monthM" style="shape=parallelogram;html=1;strokeWidth=2;perimeter=parallelogramPerimeter;whiteSpace=wrap;rounded=1;arcSize=12;size=0.23;" vertex="1" parent="1">
          <mxGeometry x="210" y="130" width="100" height="60" as="geometry" />
        </mxCell>
        <mxCell id="FyFO1tsIWuesugRNneb9-56" value="max_dayM" style="shape=parallelogram;html=1;strokeWidth=2;perimeter=parallelogramPerimeter;whiteSpace=wrap;rounded=1;arcSize=12;size=0.23;" vertex="1" parent="1">
          <mxGeometry x="490" y="130" width="100" height="60" as="geometry" />
        </mxCell>
        <mxCell id="FyFO1tsIWuesugRNneb9-57" value="yearM" style="shape=parallelogram;html=1;strokeWidth=2;perimeter=parallelogramPerimeter;whiteSpace=wrap;rounded=1;arcSize=12;size=0.23;" vertex="1" parent="1">
          <mxGeometry x="70" y="130" width="100" height="60" as="geometry" />
        </mxCell>
        <mxCell id="FyFO1tsIWuesugRNneb9-58" value="leapM" style="shape=parallelogram;html=1;strokeWidth=2;perimeter=parallelogramPerimeter;whiteSpace=wrap;rounded=1;arcSize=12;size=0.23;" vertex="1" parent="1">
          <mxGeometry x="630" y="130" width="100" height="60" as="geometry" />
        </mxCell>
        <mxCell id="FyFO1tsIWuesugRNneb9-71" style="edgeStyle=orthogonalEdgeStyle;rounded=0;orthogonalLoop=1;jettySize=auto;html=1;entryX=0.5;entryY=0;entryDx=0;entryDy=0;" edge="1" parent="1" source="FyFO1tsIWuesugRNneb9-64" target="FyFO1tsIWuesugRNneb9-70">
          <mxGeometry relative="1" as="geometry" />
        </mxCell>
        <mxCell id="FyFO1tsIWuesugRNneb9-64" value="monthM&amp;gt;12" style="strokeWidth=2;html=1;shape=mxgraph.flowchart.decision;whiteSpace=wrap;" vertex="1" parent="1">
          <mxGeometry x="350" y="310" width="100" height="100" as="geometry" />
        </mxCell>
        <mxCell id="FyFO1tsIWuesugRNneb9-65" style="edgeStyle=orthogonalEdgeStyle;rounded=0;orthogonalLoop=1;jettySize=auto;html=1;entryX=0.5;entryY=0;entryDx=0;entryDy=0;entryPerimeter=0;" edge="1" parent="1" source="FyFO1tsIWuesugRNneb9-57" target="FyFO1tsIWuesugRNneb9-64">
          <mxGeometry relative="1" as="geometry">
            <Array as="points">
              <mxPoint x="120" y="220" />
              <mxPoint x="400" y="220" />
            </Array>
          </mxGeometry>
        </mxCell>
        <mxCell id="FyFO1tsIWuesugRNneb9-66" style="edgeStyle=orthogonalEdgeStyle;rounded=0;orthogonalLoop=1;jettySize=auto;html=1;entryX=0.5;entryY=0;entryDx=0;entryDy=0;entryPerimeter=0;" edge="1" parent="1" source="FyFO1tsIWuesugRNneb9-55" target="FyFO1tsIWuesugRNneb9-64">
          <mxGeometry relative="1" as="geometry">
            <Array as="points">
              <mxPoint x="260" y="220" />
              <mxPoint x="400" y="220" />
            </Array>
          </mxGeometry>
        </mxCell>
        <mxCell id="FyFO1tsIWuesugRNneb9-67" style="edgeStyle=orthogonalEdgeStyle;rounded=0;orthogonalLoop=1;jettySize=auto;html=1;entryX=0.5;entryY=0;entryDx=0;entryDy=0;entryPerimeter=0;" edge="1" parent="1" source="FyFO1tsIWuesugRNneb9-54" target="FyFO1tsIWuesugRNneb9-64">
          <mxGeometry relative="1" as="geometry" />
        </mxCell>
        <mxCell id="FyFO1tsIWuesugRNneb9-68" style="edgeStyle=orthogonalEdgeStyle;rounded=0;orthogonalLoop=1;jettySize=auto;html=1;entryX=0.5;entryY=0;entryDx=0;entryDy=0;entryPerimeter=0;" edge="1" parent="1" source="FyFO1tsIWuesugRNneb9-56" target="FyFO1tsIWuesugRNneb9-64">
          <mxGeometry relative="1" as="geometry">
            <Array as="points">
              <mxPoint x="560" y="220" />
              <mxPoint x="400" y="220" />
            </Array>
          </mxGeometry>
        </mxCell>
        <mxCell id="FyFO1tsIWuesugRNneb9-69" style="edgeStyle=orthogonalEdgeStyle;rounded=0;orthogonalLoop=1;jettySize=auto;html=1;entryX=0.5;entryY=0;entryDx=0;entryDy=0;entryPerimeter=0;" edge="1" parent="1" source="FyFO1tsIWuesugRNneb9-58" target="FyFO1tsIWuesugRNneb9-64">
          <mxGeometry relative="1" as="geometry">
            <Array as="points">
              <mxPoint x="700" y="220" />
              <mxPoint x="400" y="220" />
            </Array>
          </mxGeometry>
        </mxCell>
        <mxCell id="FyFO1tsIWuesugRNneb9-72" style="edgeStyle=orthogonalEdgeStyle;rounded=0;orthogonalLoop=1;jettySize=auto;html=1;" edge="1" parent="1" source="FyFO1tsIWuesugRNneb9-70">
          <mxGeometry relative="1" as="geometry">
            <mxPoint x="405.2631578947368" y="260.0000000000001" as="targetPoint" />
            <Array as="points">
              <mxPoint x="540" y="570" />
              <mxPoint x="670" y="570" />
              <mxPoint x="670" y="260" />
            </Array>
          </mxGeometry>
        </mxCell>
        <mxCell id="FyFO1tsIWuesugRNneb9-70" value="monthM = monthM - 1" style="rounded=1;whiteSpace=wrap;html=1;absoluteArcSize=1;arcSize=14;strokeWidth=2;" vertex="1" parent="1">
          <mxGeometry x="470" y="410" width="140" height="40" as="geometry" />
        </mxCell>
        <mxCell id="FyFO1tsIWuesugRNneb9-73" value="Verdadero" style="text;html=1;align=center;verticalAlign=middle;whiteSpace=wrap;rounded=0;" vertex="1" parent="1">
          <mxGeometry x="460" y="340" width="60" height="20" as="geometry" />
        </mxCell>
        <mxCell id="FyFO1tsIWuesugRNneb9-82" style="edgeStyle=orthogonalEdgeStyle;rounded=0;orthogonalLoop=1;jettySize=auto;html=1;entryX=0.5;entryY=0;entryDx=0;entryDy=0;" edge="1" parent="1" source="FyFO1tsIWuesugRNneb9-75" target="FyFO1tsIWuesugRNneb9-81">
          <mxGeometry relative="1" as="geometry">
            <Array as="points">
              <mxPoint x="360" y="440" />
            </Array>
          </mxGeometry>
        </mxCell>
        <mxCell id="FyFO1tsIWuesugRNneb9-75" value="&lt;div&gt;(monthM%2 &lt;span lang=&quot;es&quot; class=&quot;BxUVEf ILfuVd&quot;&gt;&lt;span class=&quot;hgKElc&quot;&gt;≠ 0)&lt;/span&gt;&lt;/span&gt;&lt;/div&gt;&lt;div&gt;&lt;span lang=&quot;es&quot; class=&quot;BxUVEf ILfuVd&quot;&gt;&lt;span class=&quot;hgKElc&quot;&gt;or (monthM = 8)&lt;/span&gt;&lt;/span&gt;&lt;/div&gt;&lt;div&gt;&lt;span lang=&quot;es&quot; class=&quot;BxUVEf ILfuVd&quot;&gt;&lt;span class=&quot;hgKElc&quot;&gt;or (monthM = 12)&lt;br&gt;&lt;/span&gt;&lt;/span&gt;&lt;/div&gt;&lt;div&gt;&lt;span lang=&quot;es&quot; class=&quot;BxUVEf ILfuVd&quot;&gt;&lt;span class=&quot;hgKElc&quot;&gt;&lt;/span&gt;&lt;/span&gt;&lt;/div&gt;" style="strokeWidth=2;html=1;shape=mxgraph.flowchart.decision;whiteSpace=wrap;" vertex="1" parent="1">
          <mxGeometry x="140" y="380" width="150" height="120" as="geometry" />
        </mxCell>
        <mxCell id="FyFO1tsIWuesugRNneb9-76" style="edgeStyle=orthogonalEdgeStyle;rounded=0;orthogonalLoop=1;jettySize=auto;html=1;entryX=0.5;entryY=0;entryDx=0;entryDy=0;entryPerimeter=0;" edge="1" parent="1" source="FyFO1tsIWuesugRNneb9-64" target="FyFO1tsIWuesugRNneb9-75">
          <mxGeometry relative="1" as="geometry" />
        </mxCell>
        <mxCell id="FyFO1tsIWuesugRNneb9-77" value="Falso" style="text;html=1;align=center;verticalAlign=middle;whiteSpace=wrap;rounded=0;" vertex="1" parent="1">
          <mxGeometry x="270" y="340" width="60" height="20" as="geometry" />
        </mxCell>
        <mxCell id="FyFO1tsIWuesugRNneb9-81" value="max_dayM = 31" style="rounded=1;whiteSpace=wrap;html=1;absoluteArcSize=1;arcSize=14;strokeWidth=2;" vertex="1" parent="1">
          <mxGeometry x="310" y="480" width="100" height="40" as="geometry" />
        </mxCell>
        <mxCell id="FyFO1tsIWuesugRNneb9-83" value="Verdadero" style="text;html=1;align=center;verticalAlign=middle;whiteSpace=wrap;rounded=0;" vertex="1" parent="1">
          <mxGeometry x="290" y="420" width="60" height="20" as="geometry" />
        </mxCell>
        <mxCell id="FyFO1tsIWuesugRNneb9-89" style="edgeStyle=orthogonalEdgeStyle;rounded=0;orthogonalLoop=1;jettySize=auto;html=1;entryX=0.5;entryY=0;entryDx=0;entryDy=0;" edge="1" parent="1" source="FyFO1tsIWuesugRNneb9-84" target="FyFO1tsIWuesugRNneb9-88">
          <mxGeometry relative="1" as="geometry">
            <Array as="points">
              <mxPoint x="205" y="520" />
            </Array>
          </mxGeometry>
        </mxCell>
        <mxCell id="FyFO1tsIWuesugRNneb9-84" value="monthM = 0" style="strokeWidth=2;html=1;shape=mxgraph.flowchart.decision;whiteSpace=wrap;" vertex="1" parent="1">
          <mxGeometry x="-10" y="460" width="150" height="120" as="geometry" />
        </mxCell>
        <mxCell id="FyFO1tsIWuesugRNneb9-85" style="edgeStyle=orthogonalEdgeStyle;rounded=0;orthogonalLoop=1;jettySize=auto;html=1;entryX=0.5;entryY=0;entryDx=0;entryDy=0;entryPerimeter=0;" edge="1" parent="1" source="FyFO1tsIWuesugRNneb9-75" target="FyFO1tsIWuesugRNneb9-84">
          <mxGeometry relative="1" as="geometry">
            <Array as="points">
              <mxPoint x="65" y="440" />
            </Array>
          </mxGeometry>
        </mxCell>
        <mxCell id="FyFO1tsIWuesugRNneb9-86" value="Falso" style="text;html=1;align=center;verticalAlign=middle;whiteSpace=wrap;rounded=0;" vertex="1" parent="1">
          <mxGeometry x="80" y="425" width="60" height="10" as="geometry" />
        </mxCell>
        <mxCell id="FyFO1tsIWuesugRNneb9-91" value="" style="edgeStyle=orthogonalEdgeStyle;rounded=0;orthogonalLoop=1;jettySize=auto;html=1;" edge="1" parent="1" source="FyFO1tsIWuesugRNneb9-88" target="FyFO1tsIWuesugRNneb9-90">
          <mxGeometry relative="1" as="geometry" />
        </mxCell>
        <mxCell id="FyFO1tsIWuesugRNneb9-88" value="monthM = monthM + 1" style="rounded=1;whiteSpace=wrap;html=1;absoluteArcSize=1;arcSize=14;strokeWidth=2;" vertex="1" parent="1">
          <mxGeometry x="140" y="545" width="130" height="40" as="geometry" />
        </mxCell>
        <mxCell id="FyFO1tsIWuesugRNneb9-90" value="max_dayM = 31" style="rounded=1;whiteSpace=wrap;html=1;absoluteArcSize=1;arcSize=14;strokeWidth=2;" vertex="1" parent="1">
          <mxGeometry x="155" y="610" width="100" height="40" as="geometry" />
        </mxCell>
        <mxCell id="FyFO1tsIWuesugRNneb9-92" value="Verdadero" style="text;html=1;align=center;verticalAlign=middle;whiteSpace=wrap;rounded=0;" vertex="1" parent="1">
          <mxGeometry x="140" y="500" width="60" height="20" as="geometry" />
        </mxCell>
        <mxCell id="FyFO1tsIWuesugRNneb9-93" value="monthM &amp;lt; 0" style="strokeWidth=2;html=1;shape=mxgraph.flowchart.decision;whiteSpace=wrap;" vertex="1" parent="1">
          <mxGeometry x="-160" y="540" width="150" height="120" as="geometry" />
        </mxCell>
        <mxCell id="FyFO1tsIWuesugRNneb9-94" style="edgeStyle=orthogonalEdgeStyle;rounded=0;orthogonalLoop=1;jettySize=auto;html=1;entryX=0.5;entryY=0;entryDx=0;entryDy=0;entryPerimeter=0;" edge="1" parent="1" source="FyFO1tsIWuesugRNneb9-84" target="FyFO1tsIWuesugRNneb9-93">
          <mxGeometry relative="1" as="geometry">
            <Array as="points">
              <mxPoint x="-85" y="520" />
            </Array>
          </mxGeometry>
        </mxCell>
        <mxCell id="FyFO1tsIWuesugRNneb9-118" value="" style="edgeStyle=orthogonalEdgeStyle;rounded=0;orthogonalLoop=1;jettySize=auto;html=1;" edge="1" parent="1" source="FyFO1tsIWuesugRNneb9-95" target="FyFO1tsIWuesugRNneb9-117">
          <mxGeometry relative="1" as="geometry" />
        </mxCell>
        <mxCell id="FyFO1tsIWuesugRNneb9-95" value="&lt;div&gt;Función&lt;/div&gt;&lt;div&gt;ifMonthNegative&lt;br&gt;&lt;/div&gt;" style="strokeWidth=2;html=1;shape=mxgraph.flowchart.display;whiteSpace=wrap;" vertex="1" parent="1">
          <mxGeometry x="-10" y="660" width="120" height="60" as="geometry" />
        </mxCell>
        <mxCell id="FyFO1tsIWuesugRNneb9-96" style="edgeStyle=orthogonalEdgeStyle;rounded=0;orthogonalLoop=1;jettySize=auto;html=1;entryX=0.5;entryY=0;entryDx=0;entryDy=0;entryPerimeter=0;" edge="1" parent="1" source="FyFO1tsIWuesugRNneb9-93" target="FyFO1tsIWuesugRNneb9-95">
          <mxGeometry relative="1" as="geometry">
            <Array as="points">
              <mxPoint x="50" y="600" />
              <mxPoint x="50" y="660" />
            </Array>
          </mxGeometry>
        </mxCell>
        <mxCell id="FyFO1tsIWuesugRNneb9-100" style="edgeStyle=orthogonalEdgeStyle;rounded=0;orthogonalLoop=1;jettySize=auto;html=1;entryX=0.5;entryY=0;entryDx=0;entryDy=0;" edge="1" parent="1" source="FyFO1tsIWuesugRNneb9-97" target="FyFO1tsIWuesugRNneb9-99">
          <mxGeometry relative="1" as="geometry">
            <Array as="points">
              <mxPoint x="-110" y="680" />
            </Array>
          </mxGeometry>
        </mxCell>
        <mxCell id="FyFO1tsIWuesugRNneb9-102" style="edgeStyle=orthogonalEdgeStyle;rounded=0;orthogonalLoop=1;jettySize=auto;html=1;entryX=0.5;entryY=0;entryDx=0;entryDy=0;" edge="1" parent="1" source="FyFO1tsIWuesugRNneb9-97" target="FyFO1tsIWuesugRNneb9-101">
          <mxGeometry relative="1" as="geometry">
            <Array as="points">
              <mxPoint x="-370" y="680" />
            </Array>
          </mxGeometry>
        </mxCell>
        <mxCell id="FyFO1tsIWuesugRNneb9-97" value="monthM = 2" style="strokeWidth=2;html=1;shape=mxgraph.flowchart.decision;whiteSpace=wrap;" vertex="1" parent="1">
          <mxGeometry x="-310" y="620" width="150" height="120" as="geometry" />
        </mxCell>
        <mxCell id="FyFO1tsIWuesugRNneb9-98" style="edgeStyle=orthogonalEdgeStyle;rounded=0;orthogonalLoop=1;jettySize=auto;html=1;entryX=0.5;entryY=0;entryDx=0;entryDy=0;entryPerimeter=0;" edge="1" parent="1" source="FyFO1tsIWuesugRNneb9-93" target="FyFO1tsIWuesugRNneb9-97">
          <mxGeometry relative="1" as="geometry">
            <Array as="points">
              <mxPoint x="-235" y="600" />
            </Array>
          </mxGeometry>
        </mxCell>
        <mxCell id="FyFO1tsIWuesugRNneb9-99" value="max_dayM = leapM" style="rounded=1;whiteSpace=wrap;html=1;absoluteArcSize=1;arcSize=14;strokeWidth=2;" vertex="1" parent="1">
          <mxGeometry x="-170" y="720" width="120" height="40" as="geometry" />
        </mxCell>
        <mxCell id="FyFO1tsIWuesugRNneb9-101" value="max_dayM = 30" style="rounded=1;whiteSpace=wrap;html=1;absoluteArcSize=1;arcSize=14;strokeWidth=2;" vertex="1" parent="1">
          <mxGeometry x="-430" y="720" width="120" height="40" as="geometry" />
        </mxCell>
        <mxCell id="FyFO1tsIWuesugRNneb9-103" value="Falso" style="text;html=1;align=center;verticalAlign=middle;whiteSpace=wrap;rounded=0;" vertex="1" parent="1">
          <mxGeometry x="-80" y="505" width="60" height="10" as="geometry" />
        </mxCell>
        <mxCell id="FyFO1tsIWuesugRNneb9-104" value="Falso" style="text;html=1;align=center;verticalAlign=middle;whiteSpace=wrap;rounded=0;" vertex="1" parent="1">
          <mxGeometry x="-220" y="585" width="60" height="10" as="geometry" />
        </mxCell>
        <mxCell id="FyFO1tsIWuesugRNneb9-105" value="Falso" style="text;html=1;align=center;verticalAlign=middle;whiteSpace=wrap;rounded=0;" vertex="1" parent="1">
          <mxGeometry x="-370" y="670" width="60" height="10" as="geometry" />
        </mxCell>
        <mxCell id="FyFO1tsIWuesugRNneb9-106" value="Verdadero" style="text;html=1;align=center;verticalAlign=middle;whiteSpace=wrap;rounded=0;" vertex="1" parent="1">
          <mxGeometry x="-10" y="580" width="60" height="20" as="geometry" />
        </mxCell>
        <mxCell id="FyFO1tsIWuesugRNneb9-108" value="Verdadero" style="text;html=1;align=center;verticalAlign=middle;whiteSpace=wrap;rounded=0;" vertex="1" parent="1">
          <mxGeometry x="-160" y="660" width="60" height="20" as="geometry" />
        </mxCell>
        <mxCell id="FyFO1tsIWuesugRNneb9-116" value="" style="edgeStyle=orthogonalEdgeStyle;rounded=0;orthogonalLoop=1;jettySize=auto;html=1;" edge="1" parent="1" source="FyFO1tsIWuesugRNneb9-109" target="FyFO1tsIWuesugRNneb9-115">
          <mxGeometry relative="1" as="geometry" />
        </mxCell>
        <mxCell id="FyFO1tsIWuesugRNneb9-109" value="&lt;div&gt;Función&lt;/div&gt;&lt;div&gt;daySet&lt;br&gt; &lt;/div&gt;" style="strokeWidth=2;html=1;shape=mxgraph.flowchart.display;whiteSpace=wrap;" vertex="1" parent="1">
          <mxGeometry x="350" y="860" width="100" height="60" as="geometry" />
        </mxCell>
        <mxCell id="FyFO1tsIWuesugRNneb9-110" style="edgeStyle=orthogonalEdgeStyle;rounded=0;orthogonalLoop=1;jettySize=auto;html=1;entryX=0;entryY=0.5;entryDx=0;entryDy=0;entryPerimeter=0;" edge="1" parent="1" source="FyFO1tsIWuesugRNneb9-101" target="FyFO1tsIWuesugRNneb9-109">
          <mxGeometry relative="1" as="geometry">
            <Array as="points">
              <mxPoint x="-370" y="890" />
            </Array>
          </mxGeometry>
        </mxCell>
        <mxCell id="FyFO1tsIWuesugRNneb9-111" style="edgeStyle=orthogonalEdgeStyle;rounded=0;orthogonalLoop=1;jettySize=auto;html=1;entryX=0;entryY=0.5;entryDx=0;entryDy=0;entryPerimeter=0;" edge="1" parent="1" source="FyFO1tsIWuesugRNneb9-99" target="FyFO1tsIWuesugRNneb9-109">
          <mxGeometry relative="1" as="geometry">
            <Array as="points">
              <mxPoint x="-110" y="890" />
            </Array>
          </mxGeometry>
        </mxCell>
        <mxCell id="FyFO1tsIWuesugRNneb9-113" style="edgeStyle=orthogonalEdgeStyle;rounded=0;orthogonalLoop=1;jettySize=auto;html=1;entryX=0;entryY=0.5;entryDx=0;entryDy=0;entryPerimeter=0;" edge="1" parent="1" source="FyFO1tsIWuesugRNneb9-90" target="FyFO1tsIWuesugRNneb9-109">
          <mxGeometry relative="1" as="geometry">
            <Array as="points">
              <mxPoint x="210" y="890" />
            </Array>
          </mxGeometry>
        </mxCell>
        <mxCell id="FyFO1tsIWuesugRNneb9-114" style="edgeStyle=orthogonalEdgeStyle;rounded=0;orthogonalLoop=1;jettySize=auto;html=1;entryX=0.5;entryY=0;entryDx=0;entryDy=0;entryPerimeter=0;" edge="1" parent="1" source="FyFO1tsIWuesugRNneb9-81" target="FyFO1tsIWuesugRNneb9-109">
          <mxGeometry relative="1" as="geometry" />
        </mxCell>
        <mxCell id="FyFO1tsIWuesugRNneb9-115" value="Fin" style="strokeWidth=2;html=1;shape=mxgraph.flowchart.terminator;whiteSpace=wrap;" vertex="1" parent="1">
          <mxGeometry x="350" y="970" width="100" height="60" as="geometry" />
        </mxCell>
        <mxCell id="FyFO1tsIWuesugRNneb9-117" value="Fin" style="strokeWidth=2;html=1;shape=mxgraph.flowchart.terminator;whiteSpace=wrap;" vertex="1" parent="1">
          <mxGeometry y="780" width="100" height="60" as="geometry" />
        </mxCell>
      </root>
    </mxGraphModel>
  </diagram>
</mxfile>
